<?xml version="1.0" encoding="iso-8859-1"?>
<!-- Generator: Adobe Illustrator 18.0.0, SVG Export Plug-In . SVG Version: 6.00 Build 0)  -->
<!DOCTYPE svg PUBLIC "-//W3C//DTD SVG 1.1//EN" "http://www.w3.org/Graphics/SVG/1.1/DTD/svg11.dtd">
<svg version="1.1" id="_x31_" xmlns="http://www.w3.org/2000/svg" xmlns:xlink="http://www.w3.org/1999/xlink" x="0px" y="0px"
	 viewBox="0 0 512 512" style="enable-background:new 0 0 512 512;" xml:space="preserve">
<g>
	<rect style="fill:#ECE6D4;" width="512" height="512"/>
	<polygon style="opacity:0.1;fill:#040000;" points="512,206.234 512,512 208.128,512 126.208,430.08 115.507,419.38 
		115.507,124.058 115.866,124.058 165.427,81.92 387.686,81.92 	"/>
	<g>
		<g>
			<polygon style="fill:#FFFFFF;" points="396.493,81.92 396.493,387.943 396.134,387.943 346.573,430.08 115.507,430.08 
				115.507,124.058 115.866,124.058 165.427,81.92 			"/>
			<g>
				<rect x="138.333" y="337.781" style="opacity:0.5;fill:#C0B8A8;" width="92.684" height="56.351"/>
				<g style="opacity:0.5;">
					<rect x="245.739" y="382.436" style="fill:#C0B8A8;" width="61.935" height="7.761"/>
					<rect x="245.739" y="340.069" style="fill:#C0B8A8;" width="127.932" height="8.114"/>
					<rect x="245.739" y="361.164" style="fill:#C0B8A8;" width="127.932" height="8.114"/>
				</g>
			</g>
			<g>
				<polygon style="fill:#58AAC5;" points="376.897,175.905 376.897,192.099 334.208,192.099 287.543,242.693 214.211,163.19 
					175.054,205.631 135.106,205.631 135.106,189.438 171.171,189.438 214.211,142.801 287.543,222.305 330.324,175.905 				"/>
				<g>
					<rect x="135.106" y="247.862" style="fill:#E0A383;" width="19.042" height="68.643"/>
					<rect x="179.177" y="240.205" style="fill:#E0A383;" width="19.043" height="76.301"/>
					<rect x="223.249" y="228.172" style="fill:#E0A383;" width="19.042" height="88.334"/>
					<rect x="267.32" y="268.92" style="fill:#E0A383;" width="19.042" height="47.585"/>
					<rect x="311.392" y="252.511" style="fill:#E0A383;" width="19.043" height="63.994"/>
					<rect x="355.463" y="236.376" style="fill:#E0A383;" width="19.043" height="80.13"/>
				</g>
			</g>
			<circle style="fill:#E0A383;" cx="316.852" cy="127.572" r="15.23"/>
			<circle style="fill:#58AAC5;" cx="355.459" cy="127.572" r="15.23"/>
		</g>
		<polygon style="opacity:0.04;fill:#040000;" points="396.493,81.92 396.493,387.943 396.134,387.943 346.573,430.08 
			262.81,430.08 262.81,81.92 		"/>
	</g>
</g>
</svg>
