<?xml version="1.0" encoding="iso-8859-1"?>
<!-- Generator: Adobe Illustrator 18.0.0, SVG Export Plug-In . SVG Version: 6.00 Build 0)  -->
<!DOCTYPE svg PUBLIC "-//W3C//DTD SVG 1.1//EN" "http://www.w3.org/Graphics/SVG/1.1/DTD/svg11.dtd">
<svg version="1.1" id="_x32_" xmlns="http://www.w3.org/2000/svg" xmlns:xlink="http://www.w3.org/1999/xlink" x="0px" y="0px"
	 viewBox="0 0 512 512" style="enable-background:new 0 0 512 512;" xml:space="preserve">
<g>
	<rect style="fill:#525252;" width="512" height="512"/>
	<path style="opacity:0.1;fill:#040000;" d="M512,262.553V512H280.781L133.376,364.595l-12.186-12.186
		c-9.421-67.942-8.909-136.294,1.638-204.134c84.48-7.424,169.216-8.294,253.696-2.56c6.707,0.461,13.414,0.973,20.122,1.485
		L512,262.553z"/>
	<g>
		<g>
			<path style="fill:#A2233F;" d="M409.651,363.725c-47.872,4.198-95.897,6.297-143.872,6.297c-5.325,0-10.701-0.051-16.026-0.102
				c-6.656-0.051-13.312-0.205-19.917-0.308c-4.506-0.102-9.063-0.205-13.619-0.358c-11.827-0.358-23.654-0.871-35.482-1.485
				c-3.635-0.205-7.322-0.409-10.957-0.614c-4.608-0.256-9.216-0.563-13.824-0.87c-7.526-0.512-15.053-1.075-22.579-1.69
				c-3.533-0.256-7.015-0.563-10.547-0.87c-0.563-3.789-1.127-7.527-1.638-11.315c-9.421-67.942-8.909-136.294,1.638-204.134
				c84.48-7.424,169.216-8.294,253.696-2.56c6.707,0.461,13.414,0.973,20.122,1.485c4.352,0.358,8.653,0.717,13.005,1.075
				c0.717,4.659,1.383,9.267,1.997,13.927C420.711,229.273,420.045,296.755,409.651,363.725z"/>
		</g>
		<g>
			<path style="fill:#FFFFFF;" d="M316.697,256c-0.034,0.064-0.067,0.127-0.1,0.191c-16.912,32.447-54.734,54.575-93.893,54.575
				c0-30.271,0-79.261,0-109.532c39.159,0,76.981,22.128,93.893,54.575C316.63,255.873,316.664,255.936,316.697,256z"/>
			<path style="fill:#E3E2E2;" d="M316.697,256c-0.033-0.064-0.067-0.127-0.1-0.191c-16.912-32.447-54.734-54.575-93.893-54.575
				c0,4.235,0,8.865,0,13.731c36.334,0.906,71.101,20.666,88.658,49.872c1.893-2.799,3.681-5.662,5.235-8.645
				C316.63,256.127,316.664,256.064,316.697,256z"/>
		</g>
		<path style="opacity:0.08;fill:#040000;" d="M409.651,363.725c-47.872,4.198-95.897,6.297-143.872,6.297
			c-5.325,0-10.701-0.051-16.026-0.102c-6.656-0.051-13.312-0.205-19.917-0.308c-4.506-0.102-9.063-0.205-13.619-0.358
			c-11.827-0.358-23.654-0.871-35.482-1.485c-3.635-0.205-7.322-0.409-10.957-0.614c-4.608-0.256-9.216-0.563-13.824-0.87
			l220.57-220.57c6.707,0.461,13.414,0.973,20.122,1.485c4.352,0.358,8.653,0.717,13.005,1.075
			c0.717,4.659,1.383,9.267,1.997,13.927C420.711,229.273,420.045,296.755,409.651,363.725z"/>
	</g>
</g>
</svg>
